<?xml version="1.0" encoding="UTF-8"?>
<svg width="40px" height="40px" viewBox="0 0 40 40" version="1.1" xmlns="http://www.w3.org/2000/svg" xmlns:xlink="http://www.w3.org/1999/xlink">
    <!-- Generator: Sketch 53.2 (72643) - https://sketchapp.com -->
    <title>Group 11</title>
    <desc>Created with Sketch.</desc>
    <defs>
        <polygon id="path-1" points="0.000126502214 0.000129032258 39.2156863 0.000129032258 39.2156863 40 0.000126502214 40"></polygon>
        <polygon id="path-3" points="0.119734345 0.536 13.9152435 0.536 13.9152435 27.0076129 0.119734345 27.0076129"></polygon>
    </defs>
    <g id="Page-1" stroke="none" stroke-width="1" fill="none" fill-rule="evenodd">
        <g id="mainscreen" transform="translate(-188.000000, -353.000000)">
            <g id="Group-11" transform="translate(188.000000, 353.000000)">
                <g id="Group-3">
                    <mask id="mask-2" fill="white">
                        <use xlink:href="#path-1"></use>
                    </mask>
                    <g id="Clip-2"></g>
                    <path d="M19.5301708,0.000129032258 L19.685136,0.000129032258 C23.77179,0.000129032258 27.2689437,0.838193548 30.1557242,2.41303226 C33.0412397,3.98722581 35.3062619,6.29754839 36.8502214,9.24141935 C38.3935484,12.1852903 39.2158128,15.7530323 39.2158128,19.9207742 L39.2158128,20.0794839 C39.2158128,24.2472258 38.3935484,27.8149677 36.8502214,30.7588387 C35.3062619,33.7027097 33.0412397,36.0130323 30.1557242,37.5872258 C27.2689437,39.1614194 23.77179,40.000129 19.685136,40.000129 L19.5301708,40.000129 C15.4435168,40.000129 11.9463631,39.1614194 9.06021505,37.5872258 C6.17406705,36.0130323 3.90904491,33.7027097 2.36508539,30.7588387 C0.821758381,27.8149677 0.000126502214,24.2472258 0.000126502214,20.0794839 L0.000126502214,19.9207742 C0.000126502214,15.7530323 0.821758381,12.1852903 2.36508539,9.24141935 C3.90904491,6.29754839 6.17406705,3.98722581 9.06021505,2.41303226 C11.9463631,0.838193548 15.4435168,0.000129032258 19.5301708,0.000129032258" id="Fill-1" fill="#A0D467" mask="url(#mask-2)"></path>
                </g>
                <g id="Group-6" transform="translate(25.300443, 11.612903)">
                    <mask id="mask-4" fill="white">
                        <use xlink:href="#path-3"></use>
                    </mask>
                    <g id="Clip-5"></g>
                    <path d="M13.9154333,8.46632258 L13.9154333,8.3076129 C13.9154333,5.45341935 13.5207464,2.88825806 12.7819734,0.604387097 C12.4846932,0.563741935 12.1842505,0.536 11.8755851,0.536 C8.09063884,0.536 5.02232764,3.66632258 5.02232764,7.52696774 C5.02232764,9.53922581 5.85597723,11.352129 7.18931056,12.6276129 C3.17349779,14.4134194 0.321505376,18.4147097 0.119734345,23.1179355 L2.59475016,27.0076129 C3.38538899,26.7095484 4.13934219,26.3650323 4.85534472,25.9740645 C7.74086022,24.399871 10.0058824,22.0895484 11.5498419,19.1456774 C13.0931689,16.2018065 13.9154333,12.6340645 13.9154333,8.46632258" id="Fill-4" fill="#8CC151" mask="url(#mask-4)"></path>
                </g>
                <path d="M6.70018975,24.2286452 C8.02719798,22.9538065 8.85515497,21.1460645 8.85515497,19.1396129 C8.85515497,15.2789677 5.78684377,12.1492903 2.00126502,12.1492903 C1.70714738,12.1492903 1.41935484,12.1744516 1.13472486,12.2112258 C0.394686907,14.4963871 0,17.064129 0,19.9209032 L0,20.0789677 C0,24.2473548 0.821631879,27.8150968 2.36495889,30.7589677 C3.90891841,33.7028387 6.17394054,36.0131613 9.06008855,37.5873548 C10.3383934,38.2847742 11.743833,38.828 13.2593295,39.228 L13.7956989,34.7312258 C13.5926629,30.0176774 10.7299178,26.0092903 6.70018975,24.2286452" id="Fill-7" fill="#8CC151"></path>
                <path d="M32.442315,36.0743871 C31.1937381,32.402129 28.4739405,29.4318065 25.0008223,27.8969677 C26.5296015,26.4279355 27.4840607,24.3440645 27.4840607,22.0330968 C27.4840607,17.5834194 23.9483238,13.9769677 19.5865275,13.9769677 C15.2240987,13.9769677 11.6877293,17.5834194 11.6877293,22.0330968 C11.6877293,24.3511613 12.6485136,26.4401935 14.1855155,27.9105161 C10.7263125,29.4479355 8.01916509,32.4130968 6.77311828,36.0743871 C7.48659077,36.6337419 8.24560405,37.1427742 9.0602783,37.5872903 C11.9464263,39.1614839 15.44358,39.9995484 19.530234,39.9995484 L19.6851992,39.9995484 C23.7718533,39.9995484 27.269007,39.1614839 30.1557875,37.5872903 C30.9698292,37.1427742 31.729475,36.6337419 32.442315,36.0743871" id="Fill-9" fill="#FECE55"></path>
            </g>
        </g>
    </g>
</svg>