<?xml version="1.0" encoding="UTF-8"?>
<svg width="40px" height="40px" viewBox="0 0 40 40" version="1.1" xmlns="http://www.w3.org/2000/svg" xmlns:xlink="http://www.w3.org/1999/xlink">
    <!-- Generator: Sketch 53.2 (72643) - https://sketchapp.com -->
    <title>Group 8</title>
    <desc>Created with Sketch.</desc>
    <defs>
        <polygon id="path-1" points="0.000583333333 0 40 0 40 39.9998333 0.000583333333 39.9998333"></polygon>
    </defs>
    <g id="Page-1" stroke="none" stroke-width="1" fill="none" fill-rule="evenodd">
        <g id="mainscreen" transform="translate(-188.000000, -293.000000)">
            <g id="Group-8" transform="translate(188.000000, 293.000000)">
                <g id="Group-3">
                    <mask id="mask-2" fill="white">
                        <use xlink:href="#path-1"></use>
                    </mask>
                    <g id="Clip-2"></g>
                    <path d="M19.9205833,-0.000166666667 L20.0789167,-0.000166666667 C24.24725,-0.000166666667 27.81475,0.838166667 30.7589167,2.41316667 C33.70225,3.98733333 36.0130833,6.29733333 37.58725,9.2415 C39.1614167,12.1856667 40.0005833,15.7523333 40.0005833,19.9206667 L40.0005833,20.079 C40.0005833,24.2473333 39.1614167,27.8148333 37.58725,30.759 C36.0130833,33.7023333 33.70225,36.0123333 30.7589167,37.5873333 C27.81475,39.1615 24.24725,39.9998333 20.0789167,39.9998333 L19.9205833,39.9998333 C15.75225,39.9998333 12.1855833,39.1615 9.24141667,37.5873333 C6.29725,36.0123333 3.98725,33.7023333 2.41225,30.759 C0.838916667,27.8148333 0.000583333333,24.2473333 0.000583333333,20.079 L0.000583333333,19.9206667 C0.000583333333,15.7523333 0.838916667,12.1856667 2.41225,9.2415 C3.98725,6.29733333 6.29725,3.98733333 9.24141667,2.41316667 C12.1855833,0.838166667 15.75225,-0.000166666667 19.9205833,-0.000166666667" id="Fill-1" fill="#47CFAF" mask="url(#mask-2)"></path>
                </g>
                <path d="M22.9308333,21.3898333 L19.0458333,17.5048333 L26.8158333,17.5048333 L22.9308333,21.3898333 Z M8.97083333,17.5048333 L17.15,17.5048333 L19.2266667,19.5815 L10.6908333,19.5815 C9.43416667,19.5815 8.415,20.6006667 8.415,21.8581667 C8.415,23.1148333 9.43416667,24.134 10.6908333,24.134 L29.3091667,24.134 C30.5658333,24.134 31.5858333,23.1148333 31.5858333,21.8581667 C31.5858333,20.6006667 30.5658333,19.5815 29.3091667,19.5815 L26.6341667,19.5815 L28.7116667,17.5048333 L31.0291667,17.5048333 C30.1733333,12.184 25.5616667,8.119 20,8.119 C14.4383333,8.119 9.82583333,12.184 8.97083333,17.5048333 L8.97083333,17.5048333 Z" id="Fill-4" fill="#FECE55"></path>
                <path d="M30.155,28.9736667 C30.5691667,28.077 30.8666667,27.1161667 31.0291667,26.1086667 L8.97083333,26.1086667 C9.1325,27.1161667 9.43166667,28.077 9.845,28.9736667 C10.665,30.7486667 12.4475,31.8811667 14.4033333,31.8811667 L25.5966667,31.8811667 C27.5525,31.8811667 29.335,30.7486667 30.155,28.9736667" id="Fill-6" fill="#FECE55"></path>
            </g>
        </g>
    </g>
</svg>