<?xml version="1.0" encoding="UTF-8"?>
<svg width="256px" height="256px" viewBox="0 0 256 256" version="1.1" xmlns="http://www.w3.org/2000/svg" xmlns:xlink="http://www.w3.org/1999/xlink">
    <!-- Generator: Sketch 53.2 (72643) - https://sketchapp.com -->
    <title>Group</title>
    <desc>Created with Sketch.</desc>
    <defs>
        <linearGradient x1="0%" y1="0%" x2="100%" y2="100%" id="linearGradient-1">
            <stop stop-color="#1997D4" offset="0%"></stop>
            <stop stop-color="#26C1EB" offset="100%"></stop>
        </linearGradient>
        <polygon id="path-2" points="0.348487952 0.232609756 32.6089699 0.232609756 32.6089699 32.8863915 0.348487952 32.8863915"></polygon>
        <polygon id="path-4" points="4.01069519e-05 0.0136404762 74.9550802 0.0136404762 74.9550802 118.999879 4.01069519e-05 118.999879"></polygon>
    </defs>
    <g id="Page-1" stroke="none" stroke-width="1" fill="none" fill-rule="evenodd">
        <g id="app-login">
            <g id="Group">
                <rect id="Rectangle" fill="url(#linearGradient-1)" x="0" y="0" width="256" height="256"></rect>
                <g id="Group-7" transform="translate(91.000000, 50.000000)">
                    <g id="Group-3" transform="translate(21.000000, 0.000000)">
                        <mask id="mask-3" fill="white">
                            <use xlink:href="#path-2"></use>
                        </mask>
                        <g id="Clip-2"></g>
                        <path d="M32.6089699,16.5594402 C32.6089699,25.576489 25.3871386,32.8863915 16.4787289,32.8863915 C7.57031928,32.8863915 0.348487952,25.576489 0.348487952,16.5594402 C0.348487952,7.54239146 7.57031928,0.232489024 16.4787289,0.232489024 C25.3871386,0.232489024 32.6089699,7.54239146 32.6089699,16.5594402" id="Fill-1" fill="#FEFEFE" mask="url(#mask-3)"></path>
                    </g>
                    <g id="Group-6" transform="translate(0.000000, 37.000000)">
                        <mask id="mask-5" fill="white">
                            <use xlink:href="#path-4"></use>
                        </mask>
                        <g id="Clip-5"></g>
                        <path d="M68.0198262,58.9684262 L68.0198262,58.9684262 C71.8500401,58.9684262 74.9551203,55.8347595 74.9551203,51.9692833 L74.9551203,21.8598548 C74.9551203,9.7947119 65.2632754,0.0136404762 53.3081952,0.0136404762 L21.6469652,0.0136404762 C9.69148396,0.0136404762 4.01069519e-05,9.7947119 4.01069519e-05,21.8598548 L4.01069519e-05,51.9692833 C4.01069519e-05,55.8347595 3.10512032,58.9684262 6.93533422,58.9684262 L6.93533422,58.9684262 C10.7655481,58.9684262 13.8706283,55.8347595 13.8706283,51.9692833 L13.8706283,25.3185452 L17.3382754,25.3185452 L17.3382754,109.846998 C17.3382754,114.902069 21.3987032,118.999879 26.4076604,118.999879 C31.4166176,118.999879 35.4770455,114.902069 35.4770455,109.846998 L35.4770455,77.9841405 L38.9446925,77.9841405 L38.9446925,109.846998 C38.9446925,114.902069 43.0051203,118.999879 48.0140775,118.999879 L48.5475,118.999879 C53.5560561,118.999879 57.616885,114.902069 57.616885,109.846998 L57.616885,25.3185452 L61.0845321,25.3185452 L61.0845321,51.9692833 C61.0845321,55.8347595 64.1896123,58.9684262 68.0198262,58.9684262" id="Fill-4" fill="#FEFEFE" mask="url(#mask-5)"></path>
                    </g>
                </g>
            </g>
        </g>
    </g>
</svg>