<?xml version="1.0" encoding="UTF-8"?>
<svg width="32px" height="32px" viewBox="0 0 32 32" version="1.1" xmlns="http://www.w3.org/2000/svg" xmlns:xlink="http://www.w3.org/1999/xlink">
    <!-- Generator: Sketch 53.2 (72643) - https://sketchapp.com -->
    <title>Group</title>
    <desc>Created with Sketch.</desc>
    <defs>
        <linearGradient x1="0%" y1="0%" x2="100%" y2="100%" id="linearGradient-1">
            <stop stop-color="#1997D4" offset="0%"></stop>
            <stop stop-color="#26C1EB" offset="100%"></stop>
        </linearGradient>
        <polygon id="path-2" points="0.043560994 0.0290762195 4.07612123 0.0290762195 4.07612123 4.11079893 0.043560994 4.11079893"></polygon>
        <polygon id="path-4" points="5.01336898e-06 0.00170505952 9.36938503 0.00170505952 9.36938503 14.8749848 5.01336898e-06 14.8749848"></polygon>
    </defs>
    <g id="Page-1" stroke="none" stroke-width="1" fill="none" fill-rule="evenodd">
        <g id="app-login">
            <g id="Group">
                <rect id="Rectangle" fill="url(#linearGradient-1)" x="0" y="0" width="32" height="32"></rect>
                <g id="Group-7" transform="translate(11.375000, 6.250000)">
                    <g id="Group-3" transform="translate(2.625000, 0.000000)">
                        <mask id="mask-3" fill="white">
                            <use xlink:href="#path-2"></use>
                        </mask>
                        <g id="Clip-2"></g>
                        <path d="M4.07612123,2.06993003 C4.07612123,3.19706113 3.17339232,4.11079893 2.05984111,4.11079893 C0.94628991,4.11079893 0.043560994,3.19706113 0.043560994,2.06993003 C0.043560994,0.942798933 0.94628991,0.029061128 2.05984111,0.029061128 C3.17339232,0.029061128 4.07612123,0.942798933 4.07612123,2.06993003" id="Fill-1" fill="#FEFEFE" mask="url(#mask-3)"></path>
                    </g>
                    <g id="Group-6" transform="translate(0.000000, 4.625000)">
                        <mask id="mask-5" fill="white">
                            <use xlink:href="#path-4"></use>
                        </mask>
                        <g id="Clip-5"></g>
                        <path d="M8.50247828,7.37105327 L8.50247828,7.37105327 C8.98125501,7.37105327 9.36939004,6.97934494 9.36939004,6.49616042 L9.36939004,2.73248185 C9.36939004,1.22433899 8.15790943,0.00170505952 6.6635244,0.00170505952 L2.70587066,0.00170505952 C1.21143549,0.00170505952 5.01336898e-06,1.22433899 5.01336898e-06,2.73248185 L5.01336898e-06,6.49616042 C5.01336898e-06,6.97934494 0.38814004,7.37105327 0.866916778,7.37105327 L0.866916778,7.37105327 C1.34569352,7.37105327 1.73382854,6.97934494 1.73382854,6.49616042 L1.73382854,3.16481815 L2.16728443,3.16481815 L2.16728443,13.7308747 C2.16728443,14.3627586 2.6748379,14.8749848 3.30095755,14.8749848 C3.92707721,14.8749848 4.43463068,14.3627586 4.43463068,13.7308747 L4.43463068,9.74801756 L4.86808656,9.74801756 L4.86808656,13.7308747 C4.86808656,14.3627586 5.37564004,14.8749848 6.00175969,14.8749848 L6.0684375,14.8749848 C6.69450702,14.8749848 7.20211063,14.3627586 7.20211063,13.7308747 L7.20211063,3.16481815 L7.63556651,3.16481815 L7.63556651,6.49616042 C7.63556651,6.97934494 8.02370154,7.37105327 8.50247828,7.37105327" id="Fill-4" fill="#FEFEFE" mask="url(#mask-5)"></path>
                    </g>
                </g>
            </g>
        </g>
    </g>
</svg>