<?xml version="1.0" encoding="UTF-8"?>
<svg width="24px" height="19px" viewBox="0 0 24 19" version="1.1" xmlns="http://www.w3.org/2000/svg" xmlns:xlink="http://www.w3.org/1999/xlink">
    <!-- Generator: Sketch 53.2 (72643) - https://sketchapp.com -->
    <title>map</title>
    <desc>Created with Sketch.</desc>
    <g id="Page-1" stroke="none" stroke-width="1" fill="none" fill-rule="evenodd">
        <g id="map" fill="#FFFFFF" fill-rule="nonzero">
            <polygon id="Path" points="15.6923077 0.170769231 8.30769231 1.65969231 8.30769231 18.2741538 15.6923077 16.8"></polygon>
            <path d="M6.46153846,1.57753846 L1.28676923,0.0618461538 C1.16492308,0.0230769231 1.05230769,0 0.923076923,0 C0.413538462,0 0,0.413538462 0,0.923076923 L0,15.6923077 C0,16.1224615 0.3,16.4676923 0.698769231,16.5701538 L6.46153846,18.2344615 L6.46153846,1.57753846 Z" id="Path"></path>
            <path d="M23.2781538,1.88676923 L17.5384615,0.230769231 L17.5384615,16.8849231 L22.7824615,18.4024615 C22.8756923,18.4338462 22.9726154,18.4615385 23.0769231,18.4615385 C23.5864615,18.4615385 24,18.048 24,17.5384615 L24,2.76923077 C24,2.33076923 23.6852308,2.01138462 23.2781538,1.88676923 Z" id="Path"></path>
        </g>
    </g>
</svg>