<?xml version="1.0" encoding="UTF-8"?>
<svg width="40px" height="40px" viewBox="0 0 40 40" version="1.1" xmlns="http://www.w3.org/2000/svg" xmlns:xlink="http://www.w3.org/1999/xlink">
    <!-- Generator: Sketch 53.2 (72643) - https://sketchapp.com -->
    <title>Group 6</title>
    <desc>Created with Sketch.</desc>
    <defs>
        <polygon id="path-1" points="0.000193548387 0 40 0 40 39.999871 0.000193548387 39.999871"></polygon>
    </defs>
    <g id="Page-1" stroke="none" stroke-width="1" fill="none" fill-rule="evenodd">
        <g id="mainscreen" transform="translate(-35.000000, -293.000000)">
            <g id="Group-6" transform="translate(35.000000, 293.000000)">
                <g id="Group-3">
                    <mask id="mask-2" fill="white">
                        <use xlink:href="#path-1"></use>
                    </mask>
                    <g id="Clip-2"></g>
                    <path d="M19.9208387,-0.000129032258 L20.0789032,-0.000129032258 C24.2472903,-0.000129032258 27.8143871,0.838580645 30.7589032,2.41277419 C33.702129,3.98696774 36.0124516,6.29729032 37.5872903,9.24116129 C39.1614839,12.1850323 40.0001935,15.7527742 40.0001935,19.9205161 L40.0001935,20.0792258 C40.0001935,24.2469677 39.1614839,27.8147097 37.5872903,30.7585806 C36.0124516,33.7024516 33.702129,36.0127742 30.7589032,37.5869677 C27.8143871,39.1618065 24.2472903,39.999871 20.0789032,39.999871 L19.9208387,39.999871 C15.7524516,39.999871 12.1853548,39.1618065 9.24148387,37.5869677 C6.2976129,36.0127742 3.98729032,33.7024516 2.41245161,30.7585806 C0.838258065,27.8147097 0.000193548387,24.2469677 0.000193548387,20.0792258 L0.000193548387,19.9205161 C0.000193548387,15.7527742 0.838258065,12.1850323 2.41245161,9.24116129 C3.98729032,6.29729032 6.2976129,3.98696774 9.24148387,2.41277419 C12.1853548,0.838580645 15.7524516,-0.000129032258 19.9208387,-0.000129032258" id="Fill-1" fill="#FB6F52" mask="url(#mask-2)"></path>
                </g>
                <path d="M25.0865161,10.9805806 C23.8549032,12.4070323 22.0329677,13.3109032 20.0000645,13.3109032 C17.9671613,13.3109032 16.1452258,12.4070323 14.9129677,10.9805806 L7.91619355,16.2960645 L10.3329677,21.1296129 L13.8871613,18.9257419 L13.8871613,29.0192903 L18.4361935,29.0192903 L21.5639355,29.0192903 L26.1129677,29.0192903 L26.1129677,18.9257419 L29.6671613,21.1296129 L32.0839355,16.2960645 L25.0865161,10.9805806 Z" id="Fill-4" fill="#FECE55"></path>
            </g>
        </g>
    </g>
</svg>