<?xml version="1.0" encoding="UTF-8"?>
<svg width="40px" height="40px" viewBox="0 0 40 40" version="1.1" xmlns="http://www.w3.org/2000/svg" xmlns:xlink="http://www.w3.org/1999/xlink">
    <!-- Generator: Sketch 53.2 (72643) - https://sketchapp.com -->
    <title>Group 6</title>
    <desc>Created with Sketch.</desc>
    <defs>
        <polygon id="path-1" points="0 0 39.9999167 0 39.9999167 40 0 40"></polygon>
    </defs>
    <g id="Page-1" stroke="none" stroke-width="1" fill="none" fill-rule="evenodd">
        <g id="mainscreen" transform="translate(-35.000000, -353.000000)">
            <g id="Group-6" transform="translate(35.000000, 353.000000)">
                <g id="Group-3">
                    <mask id="mask-2" fill="white">
                        <use xlink:href="#path-1"></use>
                    </mask>
                    <g id="Clip-2"></g>
                    <path d="M19.92075,0 L20.0790833,0 C24.2474167,0 27.8149167,0.838333333 30.7590833,2.41333333 C33.7024167,3.98666667 36.01325,6.2975 37.5874167,9.24166667 C39.1615833,12.185 39.9999167,15.7525 39.9999167,19.9208333 L39.9999167,20.0791667 C39.9999167,24.2475 39.1615833,27.815 37.5874167,30.7583333 C36.01325,33.7025 33.7024167,36.0133333 30.7590833,37.5875 C27.8149167,39.1616667 24.2474167,40 20.0790833,40 L19.92075,40 C15.7524167,40 12.18575,39.1616667 9.24158333,37.5875 C6.29741667,36.0133333 3.98741667,33.7025 2.41241667,30.7583333 C0.839083333,27.815 -8.33333333e-05,24.2475 -8.33333333e-05,20.0791667 L-8.33333333e-05,19.9208333 C-8.33333333e-05,15.7525 0.839083333,12.185 2.41241667,9.24166667 C3.98741667,6.2975 6.29741667,3.98666667 9.24158333,2.41333333 C12.18575,0.838333333 15.7524167,0 19.92075,0" id="Fill-1" fill="#AB92ED" mask="url(#mask-2)"></path>
                </g>
                <path d="M26.9291667,20.5460833 C26.3375,20.5460833 25.8591667,20.0669167 25.8591667,19.47525 C25.8591667,18.8844167 26.3375,18.40525 26.9291667,18.40525 C27.52,18.40525 27.9991667,18.8844167 27.9991667,19.47525 C27.9991667,20.0669167 27.52,20.5460833 26.9291667,20.5460833 L26.9291667,20.5460833 Z M14.1666667,16.0369167 L15.06,11.96025 C15.0708333,11.9085833 15.115,11.87275 15.1683333,11.87275 L18.7708333,11.87275 L18.7708333,12.18275 C18.7708333,12.32525 18.8858333,12.4394167 19.0283333,12.4394167 L20.9725,12.4394167 C21.1133333,12.4394167 21.2291667,12.32525 21.2291667,12.18275 L21.2291667,11.87275 L24.8333333,11.87275 C24.8866667,11.87275 24.9316667,11.91025 24.9433333,11.9610833 L25.8341667,16.0369167 L14.1666667,16.0369167 Z M13.0708333,20.5460833 C12.48,20.5460833 12.0008333,20.0669167 12.0008333,19.47525 C12.0008333,18.8844167 12.48,18.40525 13.0708333,18.40525 C13.6616667,18.40525 14.1408333,18.8844167 14.1408333,19.47525 C14.1408333,20.0669167 13.6616667,20.5460833 13.0708333,20.5460833 L13.0708333,20.5460833 Z M30.065,23.0669167 L30.065,19.2294167 C30.065,17.9260833 29.1966667,16.83775 28.0108333,16.4769167 L26.9283333,11.5260833 C26.7108333,10.5335833 25.85,9.83941667 24.8333333,9.83941667 L15.1683333,9.83941667 C14.1666667,9.83941667 13.285,10.5510833 13.0733333,11.52775 L11.9891667,16.4769167 C10.8033333,16.8369167 9.935,17.92525 9.935,19.2294167 L9.935,23.0669167 C9.1475,23.12275 8.51916667,23.7619167 8.51916667,24.5644167 C8.51916667,25.4019167 9.19916667,26.0819167 10.0366667,26.0819167 L10.8391667,26.0819167 L10.8391667,28.3569167 C10.8391667,29.35275 11.6466667,30.16025 12.6416667,30.16025 C13.6383333,30.16025 14.4458333,29.35275 14.4458333,28.3569167 L14.4458333,26.0819167 L25.555,26.0819167 L25.555,28.3569167 C25.555,29.35275 26.3616667,30.16025 27.3583333,30.16025 C28.3533333,30.16025 29.1608333,29.35275 29.1608333,28.3569167 L29.1608333,26.0819167 L29.9633333,26.0819167 C30.8008333,26.0819167 31.48,25.4019167 31.48,24.5644167 C31.48,23.7619167 30.8525,23.12275 30.065,23.0669167 L30.065,23.0669167 Z" id="Fill-4" fill="#FECE55"></path>
            </g>
        </g>
    </g>
</svg>