<?xml version="1.0" encoding="UTF-8"?>
<svg width="28px" height="27px" viewBox="0 0 28 27" version="1.1" xmlns="http://www.w3.org/2000/svg" xmlns:xlink="http://www.w3.org/1999/xlink">
    <!-- Generator: Sketch 53.2 (72643) - https://sketchapp.com -->
    <title>statistics</title>
    <desc>Created with Sketch.</desc>
    <g id="Page-1" stroke="none" stroke-width="1" fill="none" fill-rule="evenodd">
        <g id="individual-show---map" transform="translate(-80.000000, -917.000000)">
            <g id="Group" transform="translate(0.000000, 913.000000)">
                <g id="statistics" transform="translate(81.000000, 5.000000)">
                    <path d="M13,2 L13,0" id="Path" stroke="#26C1EB" stroke-width="2" stroke-linecap="round" stroke-linejoin="round"></path>
                    <path d="M0,2 L26,2" id="Path" stroke="#26C1EB" stroke-width="2" stroke-linecap="round" stroke-linejoin="round"></path>
                    <path d="M14,18 L17.5,24.5" id="Path" stroke="#26C1EB" stroke-width="2" stroke-linecap="round" stroke-linejoin="round"></path>
                    <path d="M0,2 L0,18 C0,19.105 0.895,20 2,20 L24,20 C25.105,20 26,19.105 26,18 L26,2 L0,2 Z M21.707,7.707 L15.707,13.707 C15.316,14.098 14.684,14.098 14.293,13.707 L12,11.414 L8.707,14.707 C8.512,14.902 8.256,15 8,15 C7.744,15 7.488,14.902 7.293,14.707 L5.293,12.707 C4.902,12.316 4.902,11.684 5.293,11.293 C5.684,10.902 6.316,10.902 6.707,11.293 L8,12.586 L11.293,9.293 C11.684,8.902 12.316,8.902 12.707,9.293 L15,11.586 L20.293,6.293 C20.684,5.902 21.316,5.902 21.707,6.293 C22.098,6.684 22.098,7.316 21.707,7.707 Z" id="Shape" fill="#26C1EB" fill-rule="nonzero"></path>
                    <circle id="Oval" fill="#26C1EB" fill-rule="nonzero" cx="17.5" cy="24.5" r="1.5"></circle>
                    <path d="M12,18 L8.5,24.5" id="Path" stroke="#26C1EB" stroke-width="2" stroke-linecap="round" stroke-linejoin="round"></path>
                    <circle id="Oval" fill="#26C1EB" fill-rule="nonzero" cx="8.5" cy="24.5" r="1.5"></circle>
                </g>
            </g>
        </g>
    </g>
</svg>