<?xml version="1.0" encoding="UTF-8"?>
<svg width="26px" height="25px" viewBox="0 0 26 25" version="1.1" xmlns="http://www.w3.org/2000/svg" xmlns:xlink="http://www.w3.org/1999/xlink">
    <!-- Generator: Sketch 53.2 (72643) - https://sketchapp.com -->
    <title>statistics 2</title>
    <desc>Created with Sketch.</desc>
    <g id="Page-1" stroke="none" stroke-width="1" fill="none" fill-rule="evenodd">
        <g id="statistics-2" transform="translate(1.000000, 1.000000)">
            <g id="statistics">
                <path d="M12,1.84615385 L12,0" id="Path" stroke="#FFFFFF" stroke-width="2" stroke-linecap="round" stroke-linejoin="round"></path>
                <path d="M0,1.84615385 L24,1.84615385" id="Path" stroke="#FFFFFF" stroke-width="2" stroke-linecap="round" stroke-linejoin="round"></path>
                <path d="M12.9230769,16.6153846 L16.1538462,22.6153846" id="Path" stroke="#FFFFFF" stroke-width="2" stroke-linecap="round" stroke-linejoin="round"></path>
                <path d="M0,1.84615385 L0,16.6153846 C0,17.6353846 0.826153846,18.4615385 1.84615385,18.4615385 L22.1538462,18.4615385 C23.1738462,18.4615385 24,17.6353846 24,16.6153846 L24,1.84615385 L0,1.84615385 Z M20.0372308,7.11415385 L14.4987692,12.6526154 C14.1378462,13.0135385 13.5544615,13.0135385 13.1935385,12.6526154 L11.0769231,10.536 L8.03723077,13.5756923 C7.85723077,13.7556923 7.62092308,13.8461538 7.38461538,13.8461538 C7.14830769,13.8461538 6.912,13.7556923 6.732,13.5756923 L4.88584615,11.7295385 C4.52492308,11.3686154 4.52492308,10.7852308 4.88584615,10.4243077 C5.24676923,10.0633846 5.83015385,10.0633846 6.19107692,10.4243077 L7.38461538,11.6178462 L10.4243077,8.57815385 C10.7852308,8.21723077 11.3686154,8.21723077 11.7295385,8.57815385 L13.8461538,10.6947692 L18.732,5.80892308 C19.0929231,5.448 19.6763077,5.448 20.0372308,5.80892308 C20.3981538,6.16984615 20.3981538,6.75323077 20.0372308,7.11415385 Z" id="Shape" fill="#FFFFFF" fill-rule="nonzero"></path>
                <circle id="Oval" fill="#FFFFFF" fill-rule="nonzero" cx="16.1538462" cy="22.6153846" r="1.38461538"></circle>
                <path d="M11.0769231,16.6153846 L7.84615385,22.6153846" id="Path" stroke="#FFFFFF" stroke-width="2" stroke-linecap="round" stroke-linejoin="round"></path>
                <circle id="Oval" fill="#FFFFFF" fill-rule="nonzero" cx="7.84615385" cy="22.6153846" r="1.38461538"></circle>
            </g>
        </g>
    </g>
</svg>