<?xml version="1.0" encoding="UTF-8"?>
<svg width="66px" height="66px" viewBox="0 0 66 66" version="1.1" xmlns="http://www.w3.org/2000/svg" xmlns:xlink="http://www.w3.org/1999/xlink">
    <!-- Generator: Sketch 53.2 (72643) - https://sketchapp.com -->
    <title>Group 8</title>
    <desc>Created with Sketch.</desc>
    <defs>
        <polygon id="path-1" points="0.0009625 0 66 0 66 65.999725 0.0009625 65.999725"></polygon>
    </defs>
    <g id="Page-1" stroke="none" stroke-width="1" fill="none" fill-rule="evenodd">
        <g id="upgrade-notification" transform="translate(-154.000000, -353.000000)">
            <g id="Group-8" transform="translate(154.000000, 353.000000)">
                <g id="Group-3">
                    <mask id="mask-2" fill="white">
                        <use xlink:href="#path-1"></use>
                    </mask>
                    <g id="Clip-2"></g>
                    <path d="M32.8689625,-0.000275 L33.1302125,-0.000275 C40.0079625,-0.000275 45.8943375,1.382975 50.7522125,3.981725 C55.6087125,6.5791 59.4215875,10.391975 62.0189625,15.248475 C64.6163375,20.104975 66.0009625,25.99135 66.0009625,32.8691 L66.0009625,33.13035 C66.0009625,40.0081 64.6163375,45.894475 62.0189625,50.750975 C59.4215875,55.60885 55.6087125,59.421725 50.7522125,62.017725 C45.8943375,64.616475 40.0079625,65.999725 33.1302125,65.999725 L32.8689625,65.999725 C25.9912125,65.999725 20.1062125,64.616475 15.2483375,62.017725 C10.3904625,59.421725 6.5789625,55.60885 3.9802125,50.750975 C1.3842125,45.894475 0.0009625,40.0081 0.0009625,33.13035 L0.0009625,32.8691 C0.0009625,25.99135 1.3842125,20.104975 3.9802125,15.248475 C6.5789625,10.391975 10.3904625,6.5791 15.2483375,3.981725 C20.1062125,1.382975 25.9912125,-0.000275 32.8689625,-0.000275" id="Fill-1" fill="#FB6F52" mask="url(#mask-2)"></path>
                </g>
                <path d="M21.8806467,33.7533217 C22.2128217,34.0843765 22.7789034,33.8488982 22.7789034,33.3779415 L22.749838,20.9294493 C22.749838,20.4335597 22.3470758,20.0304762 21.8501973,20.029091 L9.41024206,20.0000025 C8.94104482,19.9986174 8.70575417,20.5665357 9.03792921,20.8989756 L12.7748984,24.6403106 L12.8717828,24.7358871 L0,37.6179365 C0.304493786,40.6957766 0.920401673,43.5381385 1.82142647,46.1547182 L18.0467931,29.915025 L21.8806467,33.7533217 Z M46.9709347,45.1698647 C46.9709347,44.6739751 46.5681724,44.2708916 46.071294,44.2695064 L33.6313387,44.240418 C33.1621415,44.2390328 32.9268508,44.8069511 33.2590259,45.1393911 L36.9959951,48.880726 L37.0928794,48.9763025 L21.4958773,64.5871301 C24.2418576,65.360053 27.2175923,65.8434762 30.4327699,66 L42.2678897,54.1554404 L46.1017433,57.9937371 C46.4339184,58.3247919 47,58.0893136 47,57.6183569 L46.9709347,45.1698647 Z M42.317716,30.097867 L46.0353083,33.8198097 C46.3660993,34.1508645 46.9349491,33.9153861 46.933565,33.4458147 L46.9044997,20.9973225 C46.9031156,20.5000477 46.5003534,20.0969642 46.0048589,20.0969642 L33.5649037,20.0664905 C33.0970905,20.0664905 32.8604158,20.6330237 33.1925908,20.9668488 L36.92956,24.7067986 L37.0250604,24.8023751 L6.72654456,55.1278274 C8.26977443,57.0352018 10.0510631,58.7140237 12.0634902,60.1449008 L42.2014547,29.981513 L42.317716,30.097867 Z" id="Fill-4" fill="#FECE55"></path>
                <path d="M0,37.6181162 C0.0714257682,38.345324 0.163455123,39.0600655 0.269220203,39.7623405 C0.276088066,39.8094359 0.280208783,39.8565312 0.288450218,39.9036266 C0.398336015,40.6155977 0.526078254,41.3137173 0.670303363,41.9979852 C0.675797653,42.0243032 0.679918371,42.0492361 0.68541266,42.0741689 C0.987598603,43.4911854 1.36121031,44.8514103 1.80624779,46.1548439 L5.66873357,42.2611652 C4.95447588,39.4354433 4.58223775,36.3465413 4.57811703,33 L0,37.6181162 Z M10.0930105,51.6788533 L6.67418861,55.1278962 C7.04780032,55.5933093 7.43652133,56.0434856 7.83897806,56.4811954 C7.85820808,56.5019728 7.87743809,56.5227502 7.89804168,56.5449127 C8.28676269,56.9673858 8.68921942,57.3760074 9.10541188,57.7707774 C9.14112476,57.8054063 9.17958479,57.8400353 9.21667125,57.8746642 C9.62599584,58.2597381 10.046309,58.6337307 10.4817315,58.9938717 C10.5201915,59.0257304 10.5600251,59.057589 10.6012323,59.0894476 C11.0448962,59.4551293 11.5009223,59.8083445 11.970684,60.1449379 L11.9720576,60.1449379 L15.4279659,56.6584956 C13.3676072,55.2913449 11.5860837,53.6263852 10.0930105,51.6788533 L10.0930105,51.6788533 Z M32.866842,61.2142797 L32.6044896,61.2142797 C30.0249205,61.2142797 27.6046858,60.9829584 25.332797,60.5521743 L21.3315804,64.587139 C22.6927907,64.9735981 24.1089439,65.2866437 25.5841607,65.5235057 C25.6143793,65.5276612 25.6473451,65.5304315 25.6789372,65.5359721 C26.3849535,65.6467848 27.1019583,65.7437458 27.835446,65.8185443 C27.9370904,65.8296256 28.0428555,65.8337811 28.1444998,65.8448623 C28.8202975,65.9099647 29.502963,65.9667562 30.2007378,66 L35,61.1616437 C34.3008516,61.1948875 33.5893411,61.2142797 32.866842,61.2142797 L32.866842,61.2142797 Z" id="Fill-6" fill="#F6BB43"></path>
            </g>
        </g>
    </g>
</svg>